# AST/ASF file generated using VICON BodyLanguage
# -----------------------------------------------
:version 1.10
:name VICON
:units
  mass 1.0
  length 0.45
  angle deg
:documentation
   .ast/.asf automatically generated from VICON data using
   VICON BodyBuilder and BodyLanguage model FoxedUp or BRILLIANT.MOD
:root
   order TX TY TZ RX RY RZ
   axis XYZ
   position 0 0 0  
   orientation 0 0 0 
:bonedata
  begin
     id 1 
     name lhipjoint
     direction 0.690799 -0.707083 0.151096 
     length 2.54797 
     axis 0 0 0  XYZ
  end
  begin
     id 2 
     name lfemur
     direction 0.34202 -0.939693 0  
     length 7.21646  
     axis 0 0 20  XYZ
    dof rx ry rz
    limits (-160.0 20.0)
           (-70.0 70.0)
           (-60.0 70.0)
  end
  begin
     id 3 
     name ltibia
     direction 0.34202 -0.939693 0   
     length 8.16759   
     axis 0 0 20   XYZ
    dof rx
    limits (-10.0 170.0)
  end
  begin
     id 4 
     name lfoot
     direction 0.0487203 -0.133858 0.989802   
     length 1.93375   
     axis -90 7.62852e-016 20   XYZ
    dof rx rz
    limits (-45.0 90.0)
           (-70.0 20.0)
  end
  begin
     id 5 
     name ltoes
     direction 1.53453e-011 -4.21783e-011 1   
     length 0.979747   
     axis -90 7.62852e-016 20   XYZ
    dof rx
    limits (-90.0 20.0)
  end
  begin
     id 6 
     name rhipjoint
     direction -0.694693 -0.703425 0.150315   
     length 2.56122  
     axis 0 0 0  XYZ 
  end
  begin
     id 7 
     name rfemur
     direction -0.34202 -0.939693 0   
     length 7.36786   
     axis 0 0 -20   XYZ
    dof rx ry rz
    limits (-160.0 20.0)
           (-70.0 70.0)
           (-70.0 60.0)
  end
  begin
     id 8 
     name rtibia
     direction -0.34202 -0.939693 0   
     length 8.07288   
     axis 0 0 -20   XYZ
    dof rx
    limits (-10.0 170.0)
 end
 begin
     id 9 
     name rfoot
     direction -0.0428397 -0.117701 0.992125   
     length 1.88295  
     axis -90 -7.62852e-016 -20   XYZ
    dof rx rz
    limits (-45.0 90.0)
           (-20.0 70.0)
  end
  begin
     id 10 
     name rtoes
     direction -1.53456e-011 -4.2187e-011 1   
     length 0.955578   
     axis -90 -7.62852e-016 -20   XYZ
    dof rx
    limits (-90.0 20.0)
  end
  begin
     id 11 
     name lowerback
     direction 0.0288145 0.999398 -0.0193241   
     length 1.92149   
     axis 0 0 0   XYZ
    dof rx ry rz
    limits (-20.0 45.0)
           (-30.0 30.0)
           (-30.0 30.0)
  end
  begin
     id 12 
     name upperback
     direction 0.0233784 0.998099 0.0570278   
     length 1.90435   
     axis 0 0 0   XYZ
    dof rx ry rz
    limits (-20.0 45.0)
           (-30.0 30.0)
           (-30.0 30.0)
  end
  begin
     id 13 
     name thorax
     direction 0.0096694 0.997833 0.0650817   
     length 1.9111   
     axis 0 0 0   XYZ
    dof rx ry rz
    limits (-20.0 45.0)
           (-30.0 30.0)
           (-30.0 30.0)
  end
  begin
     id 14 
     name lowerneck
     direction 0.00516803 0.999916 0.0118722   
     length 1.74664   
     axis 0 0 0   XYZ
    dof rx ry rz
    limits (-20.0 45.0)
           (-30.0 30.0)
           (-30.0 30.0)
  end
  begin
     id 15 
     name upperneck
     direction -0.0510851 0.996117 -0.071696   
     length 1.68498   
     axis 0 0 0   XYZ
    dof rx ry rz
    limits (-20.0 45.0)
           (-30.0 30.0)
           (-30.0 30.0)
  end
  begin
     id 16
     name head
     direction -0.019188 0.999436 -0.0275702  
     length 1.83483  
     axis 0 0 0   XYZ
    dof rx ry rz
    limits (-20.0 45.0)
           (-30.0 30.0)
           (-30.0 30.0)
  end
  begin
     id 17 
     name lclavicle
     direction 0.967006 0.248456 -0.0562957  
     length 3.39395  
     axis 0 0 0   XYZ
    dof ry rz
    limits (-20.0 10.0)
           (0.0 20.0)
  end
  begin
     id 18 
     name lhumerus
     direction 1 -4.48962e-011 -5.62711e-019   
     length 5.24318   
     axis 180 -30 -90   XYZ
    dof rx ry rz
    limits (-60.0 90.0)
           (-90.0 90.0)
           (-90.0 90.0)
  end
  begin
     id 19
     name lradius
     direction 1 -4.48966e-011 7.90625e-027   
     length 2.98999   
     axis 180 -30 -90   XYZ
    dof rx
    limits (-10.0 170.0)
  end
  begin
     id 20
     name lwrist
     direction 1 -4.48959e-011 1.61068e-026   
     length 1.49499   
     axis -9.31229e-015 90 90   XYZ
    dof ry
    limits (-180.0 0.0)
 end
  begin
     id 21 
     name lhand
     direction 1 -4.49017e-011 3.22136e-026   
     length 0.726745   
     axis -2.0555e-014 90 90   XYZ
    dof rx rz
    limits (-90.0 90.0)
           (-45.0 45.0)
  end
  begin
     id 22 
     name lfingers
     direction 1 -4.4898e-011 6.44272e-026   
     length 0.58592   
     axis -4.11101e-014 90 90   XYZ
    dof rx
    limits (0.0 90.0)
  end
  begin
     id 23
     name lthumb
     direction 0.707107 -6.34922e-011 0.707107   
     length 0.841268   
     axis -90 45 2.85299e-015   XYZ
    dof rx rz
    limits (-45.0 45.0)
           (-45.0 45.0)
  end
  begin
     id 24 
     name rclavicle
     direction -0.972232 0.230238 0.0419005   
     length 3.40416  
     axis 0 0 0   XYZ 
    dof ry rz
    limits (-10.0 20.0)
           (-20.0 0.0)
  end
  begin
     id 25 
     name rhumerus
     direction -1 -4.48976e-011 2.48487e-027  
     length 5.37045   
     axis 180 30 90   XYZ
    dof rx ry rz
    limits (-90.0 60.0)
           (-90.0 90.0)
           (-90.0 90.0)
  end
  begin
     id 26 
     name rradius
     direction -1 -4.48942e-011 7.87951e-027   
     length 2.92792   
     axis 180 30 90   XYZ
    dof rx
    limits (-10.0 170.0)
  end
  begin
     id 27 
     name rwrist
     direction -1 -4.48969e-011 1.61068e-026   
     length 1.46396   
     axis -9.31229e-015 -90 -90   XYZ
    dof ry
    limits (-180.0 0.0)
  end
  begin
     id 28
     name rhand
     direction -1 -4.49043e-011 3.22136e-026   
     length 0.784497   
     axis -2.0555e-014 -90 -90   XYZ
    dof rx rz
    limits (-90.0 90.0)
           (-45.0 45.0)
  end
  begin
     id 29
     name rfingers
     direction -1 -4.48823e-011 6.44272e-026   
     length 0.632482   
     axis -4.11101e-014 -90 -90   XYZ
    dof rx
    limits (0.0 90.0)
  end
  begin
     id 30
     name rthumb
     direction -0.707107 -6.34923e-011 0.707107   
     length 0.908121   
     axis -90 -45 -2.85299e-015   XYZ
    dof rx rz
    limits (-45.0 45.0)
           (-45.0 45.0)
  end
:hierarchy
  begin
    root lhipjoint rhipjoint lowerback
    lhipjoint lfemur
    lfemur ltibia
    ltibia lfoot
    lfoot ltoes
    rhipjoint rfemur
    rfemur rtibia
    rtibia rfoot
    rfoot rtoes
    lowerback upperback
    upperback thorax
    thorax lowerneck lclavicle rclavicle
    lowerneck upperneck
    upperneck head
    lclavicle lhumerus
    lhumerus lradius
    lradius lwrist
    lwrist lhand lthumb
    lhand lfingers
    rclavicle rhumerus
    rhumerus rradius
    rradius rwrist
    rwrist rhand rthumb
    rhand rfingers
  end

#!OML:ASF E:\Style6\Style6.ASF
:FULLY-SPECIFIED
:DEGREES
243
root 0.638218 17.8706 0.501058 7.67447 26.2841 -1.2745
lowerback 0.585524 1.79873 3.46335
upperback -8.97187 3.06224 3.83861
thorax -9.88715 1.45891 1.87182
lowerneck -12.6413 -6.45433 -0.911554
upperneck 22.4945 -7.35749 -5.98468
head 8.92413 -4.1473 -2.70389
rclavicle -1.09332e-014 -4.6118e-014
rhumerus -19.5619 8.95811 -99.6521
rradius 135.253
rwrist 48.4488
rhand 33.6837 -3.38771
rfingers 7.12502
rthumb 56.9847 -19.9864
lclavicle -1.09332e-014 -4.6118e-014
lhumerus -21.8571 1.87749 91.8105
lradius 119.767
lwrist -27.6026
lhand 11.1763 37.1942
lfingers 7.12502
lthumb 36.2411 63.4511
rfemur -16.1136 -10.3357 21.0287
rtibia 28.8095
rfoot -20.8131 -17.563
rtoes 9.6635
lfemur -25.1028 -22.5797 -14.1029
ltibia 32.1011
lfoot -10.8732 2.32086
ltoes -18.0489
244
root 0.663869 17.8666 0.503856 7.64124 23.7716 -1.40439
lowerback 0.52627 1.63422 3.39316
upperback -8.9943 2.83223 3.94192
thorax -9.88329 1.35336 2.04461
lowerneck -12.4774 -6.60286 -1.0547
upperneck 22.5307 -7.55994 -5.93513
head 8.90926 -4.25246 -2.6809
rclavicle -4.35338e-014 -2.8625e-014
rhumerus -19.3435 8.88482 -99.4742
rradius 135.127
rwrist 48.3735
rhand 33.4797 -3.55676
rfingers 7.12502
rthumb 56.8052 -20.3039
lclavicle -4.35338e-014 -2.8625e-014
lhumerus -21.731 1.9719 91.8297
lradius 119.787
lwrist -27.6494
lhand 10.9906 37.1146
lfingers 7.12502
lthumb 36.0652 63.4151
rfemur -16.5401 -9.67731 20.8552
rtibia 28.9776
rfoot -19.5663 -16.57
rtoes 7.23711
lfemur -24.5968 -21.7259 -14.3343
ltibia 32.2416
lfoot -10.8675 3.68883
ltoes -17.9115
245
root 0.68812 17.8647 0.507694 7.62872 21.2424 -1.50989
lowerback 0.451243 1.48316 3.27407
upperback -9.02412 2.615 4.024
thorax -9.87767 1.25694 2.22108
lowerneck -12.2363 -6.73433 -1.19219
upperneck 22.5225 -7.76095 -5.81132
head 8.86826 -4.34801 -2.62833
rclavicle -5.08889e-014 -2.70347e-014
rhumerus -19.2091 8.72518 -99.3098
rradius 135.066
rwrist 48.2831
rhand 33.5462 -3.64033
rfingers 7.12502
rthumb 56.8638 -20.3393
lclavicle -5.08889e-014 -2.70347e-014
lhumerus -21.656 1.80518 91.8314
lradius 119.918
lwrist -27.6749
lhand 10.6191 37.1295
lfingers 7.12502
lthumb 35.7133 63.5159
rfemur -16.9909 -8.93489 20.6439
rtibia 29.1656
rfoot -18.6786 -15.278
rtoes 8.21358
lfemur -24.0482 -20.785 -14.5972
ltibia 32.3474
lfoot -10.9541 4.98953
ltoes -17.4531
246
root 0.711214 17.8644 0.507352 7.62323 18.6933 -1.5839
lowerback 0.454882 1.37208 3.23317
upperback -9.04168 2.45257 4.02024
thorax -9.89713 1.1757 2.25526
lowerneck -12.1347 -6.89315 -1.27811
upperneck 22.5432 -8.00088 -5.71799
head 8.85849 -4.46199 -2.60569
rclavicle -3.69739e-014 9.54166e-015
rhumerus -18.9377 8.42043 -99.0676
rradius 134.986
rwrist 48.356
rhand 33.4195 -3.68331
rfingers 7.12502
rthumb 56.7521 -20.474
lclavicle -3.69739e-014 9.54166e-015
lhumerus -21.4347 1.38469 91.7824
lradius 120.025
lwrist -27.6946
lhand 10.4326 37.2567
lfingers 7.12502
lthumb 35.5365 63.6858
rfemur -17.4948 -8.08139 20.3783
rtibia 29.3869
rfoot -18.1884 -13.7449
rtoes 12.072
lfemur -23.5114 -19.8234 -14.8966
ltibia 32.4096
lfoot -11.076 6.27235
ltoes -17.1202
247
root 0.732783 17.8612 0.506089 7.6972 16.1146 -1.55768
lowerback 0.562225 1.24273 3.07683
upperback -9.08038 2.26405 3.99079
thorax -10.0042 1.08913 2.32737
lowerneck -12.3446 -7.00297 -1.19621
upperneck 22.669 -8.1692 -5.75352
head 8.9299 -4.54426 -2.66402
rclavicle 2.50469e-014 -2.54444e-014
rhumerus -18.6414 8.13394 -98.848
rradius 134.925
rwrist 48.5346
rhand 33.3074 -3.91051
rfingers 7.12502
rthumb 56.6534 -20.7817
lclavicle 2.50469e-014 -2.54444e-014
lhumerus -21.1169 1.1492 91.7709
lradius 120.01
lwrist -27.7388
lhand 10.2205 37.2552
lfingers 7.12502
lthumb 35.3354 63.7322
rfemur -18.0663 -7.40708 20.0658
rtibia 29.5723
rfoot -17.2432 -12.5151
rtoes 12.2807
lfemur -23.044 -18.7878 -15.2953
ltibia 32.4701
lfoot -11.1934 7.54435
ltoes -16.9204
248
root 0.756383 17.8556 0.514257 7.8327 13.5313 -1.457
lowerback 0.721523 1.16408 2.79463
upperback -9.23155 2.14316 3.92166
thorax -10.2731 1.04448 2.42254
lowerneck -12.6104 -7.13497 -0.896452
upperneck 22.8997 -8.3827 -5.93005
head 9.02767 -4.64526 -2.81607
rclavicle -3.24019e-014 -2.8625e-014
rhumerus -18.4972 7.51875 -98.5609
rradius 134.933
rwrist 48.8226
rhand 33.5134 -3.91426
rfingers 7.12502
rthumb 56.8349 -20.637
lclavicle -3.24019e-014 -2.8625e-014
lhumerus -21.0363 0.802095 91.8339
lradius 119.966
lwrist -27.7101
lhand 9.81456 37.2275
lfingers 7.12502
lthumb 34.9504 63.7951
rfemur -18.603 -7.01143 19.7399
rtibia 29.6763
rfoot -15.8479 -11.5253
rtoes 7.19245
lfemur -22.619 -17.7804 -15.7711
ltibia 32.5747
lfoot -11.3749 8.79229
ltoes -16.4549
249
root 0.780004 17.8471 0.522717 7.90834 10.938 -1.56121
lowerback 0.804819 1.0388 2.70525
upperback -9.37519 1.97587 3.97665
thorax -10.4874 0.968619 2.55018
lowerneck -12.4844 -7.19307 -0.917813
upperneck 22.8435 -8.49977 -5.83059
head 8.98727 -4.69536 -2.78395
rclavicle -1.55052e-014 -2.38542e-014
rhumerus -18.4272 7.02901 -98.3029
rradius 134.896
rwrist 49.1595
rhand 33.5562 -3.98331
rfingers 7.12502
rthumb 56.8725 -20.675
lclavicle -1.55052e-014 -2.38542e-014
lhumerus -20.9778 0.655215 91.9021
lradius 119.963
lwrist -27.6801
lhand 9.74663 37.0998
lfingers 7.12502
lthumb 34.886 63.6824
rfemur -19.1039 -6.49231 19.6487
rtibia 29.7072
rfoot -14.6009 -10.5171
rtoes 1.05546
lfemur -22.2507 -16.7601 -16.0286
ltibia 32.7128
lfoot -11.5287 10.0109
ltoes -16.1724
250
root 0.80308 17.8422 0.526948 8.00373 8.4003 -1.88142
lowerback 0.619722 0.931151 2.81676
upperback -9.34157 1.82189 4.07337
thorax -10.3344 0.885002 2.60894
lowerneck -12.4916 -7.25537 -1.02282
upperneck 22.6437 -8.65388 -5.50585
head 8.93712 -4.74483 -2.66791
rclavicle 2.32578e-014 -3.02153e-014
rhumerus -18.1045 6.4804 -98.0407
rradius 134.862
rwrist 49.515
rhand 33.1557 -4.14497
rfingers 7.12502
rthumb 56.5195 -21.1244
lclavicle 2.32578e-014 -3.02153e-014
lhumerus -20.443 0.503969 91.9563
lradius 119.831
lwrist -27.5691
lhand 10.1112 36.7517
lfingers 7.12502
lthumb 35.2318 63.2533
rfemur -19.6519 -5.82357 19.7821
rtibia 29.6749
rfoot -13.547 -9.34677
rtoes -2.56722
lfemur -21.9616 -15.5997 -16.0412
ltibia 32.8474
lfoot -11.7048 11.1213
ltoes -15.7344
251
root 0.828359 17.8419 0.536324 8.06766 5.81215 -1.97966
lowerback 0.346297 0.769376 2.67729
upperback -9.20989 1.57154 4.21674
thorax -10.0221 0.777501 2.86427
lowerneck -12.4933 -7.24702 -1.13831
upperneck 22.3675 -8.66369 -5.36078
head 8.85581 -4.74693 -2.59167
rclavicle 1.25234e-014 2.06736e-014
rhumerus -17.7039 6.15744 -97.6914
rradius 134.814
rwrist 49.7721
rhand 32.8397 -4.27958
rfingers 7.12502
rthumb 56.2402 -21.4815
lclavicle 1.25234e-014 2.06736e-014
lhumerus -19.8574 0.501287 92.0083
lradius 119.774
lwrist -27.4234
lhand 10.433 36.6957
lfingers 7.12502
lthumb 35.5369 63.1247
rfemur -20.0834 -5.16889 19.6339
rtibia 29.6108
rfoot -12.5794 -7.92645
rtoes -4.82386
lfemur -21.4878 -14.4351 -16.3523
ltibia 32.9335
lfoot -11.9483 12.2189
ltoes -15.44
252
root 0.851884 17.8395 0.546789 8.13994 3.20945 -1.96903
lowerback 0.193804 0.564316 2.47602
upperback -9.11608 1.26404 4.30147
thorax -9.82033 0.642564 3.09418
lowerneck -12.5512 -7.14847 -0.991943
upperneck 22.1046 -8.56297 -5.39005
head 8.7695 -4.69471 -2.60592
rclavicle 1.63003e-014 3.33958e-014
rhumerus -17.1685 5.83364 -97.396
rradius 134.688
rwrist 50.0105
rhand 33.094 -4.1416
rfingers 7.12502
rthumb 56.465 -21.1648
lclavicle 1.63003e-014 3.33958e-014
lhumerus -19.4022 0.365525 91.9267
lradius 119.742
lwrist -27.3563
lhand 10.1958 36.8999
lfingers 7.12502
lthumb 35.312 63.3825
rfemur -20.5422 -4.46634 19.3786
rtibia 29.5833
rfoot -11.6121 -6.61431
rtoes -6.84167
lfemur -21.0243 -13.3109 -16.7758
ltibia 32.9563
lfoot -12.0845 13.4352
ltoes -15.9811
253
root 0.873547 17.8389 0.556559 8.26043 0.565139 -2.03
lowerback 0.123064 0.426423 2.34229
upperback -9.11524 1.05925 4.35532
thorax -9.77236 0.550908 3.24542
lowerneck -12.5972 -7.0731 -0.857014
upperneck 21.8888 -8.50935 -5.34158
head 8.70067 -4.65701 -2.59905
rclavicle -3.18055e-015 -1.43125e-014
rhumerus -16.7978 5.30655 -97.1294
rradius 134.505
rwrist 50.3337
rhand 33.2318 -3.63457
rfingers 7.12502
rthumb 56.5866 -20.5598
lclavicle -3.18055e-015 -1.43125e-014
lhumerus -19.1418 0.200083 91.9063
lradius 119.654
lwrist -27.3223
lhand 9.99399 36.9186
lfingers 7.12502
lthumb 35.1206 63.4464
rfemur -21.1277 -3.77223 19.219
rtibia 29.6425
rfoot -10.8522 -5.13229
rtoes -7.4936
lfemur -20.6196 -12.1146 -17.1115
ltibia 32.9124
lfoot -12.2092 14.6065
ltoes -15.3084
